<svg id="Capa_1" data-name="Capa 1" xmlns="http://www.w3.org/2000/svg" viewBox="0 0 931.84 186.33"><defs><style>.cls-1{fill:#2a4365;}.cls-2{fill:#ebf8ff;}</style></defs><title>FunnyDrawing</title><path d="M1034.76,596a63.15,63.15,0,0,1-28.75-6.47,50.5,50.5,0,0,1-20.62-18.73c-.42-.67-.82-1.37-1.21-2.08h-64a10.3,10.3,0,0,1-2.63-.33H891.87a9.36,9.36,0,0,1-1.41-.1,10.34,10.34,0,0,1-3,.43H849.84a10.49,10.49,0,0,0-7.89,0H764.71a10.41,10.41,0,0,1-1.48-.1,55.38,55.38,0,0,1-7.73.55,49.56,49.56,0,0,1-25.44-6.84,48.74,48.74,0,0,1-13.88-12.06V560c0,4.81-4.27,8.7-9.54,8.7H664.53a9.37,9.37,0,0,1-9.34-6.91c-12.23,5.11-27,7.69-44,7.69a230.37,230.37,0,0,1-23.71-1.22l-8.55-.9c-4.86-.5-8.51-4.28-8.46-8.74l.07-5.57-16.89-1.32-.61,2c-4,12.4-10.22,22.38-18.52,29.64A49.92,49.92,0,0,1,500.73,596a66.82,66.82,0,0,1-15.39-1.9,79.21,79.21,0,0,1-14.22-4.79l-6.86-3.09a8.47,8.47,0,0,1-5.05-9.86l2-7.64H341.83a10.4,10.4,0,0,1-3.37-.55H317a51.08,51.08,0,0,1-12.18,1.44c-14.29,0-26.48-5.12-34.32-14.42a38.92,38.92,0,0,1-5.05-7.7l-4.17-.41.43,12.79a8.28,8.28,0,0,1-2.69,6.32,10,10,0,0,1-6.85,2.64H208.08c-5.28,0-9.55-3.89-9.55-8.69v-101c0-4.75,4.17-8.62,9.38-8.7l81.37-1.31a10,10,0,0,1,6.69,2.49,8.33,8.33,0,0,1,2.86,6.21v16.39h13.5a11,11,0,0,1,2.15.22h41.74c.25,0,.49,0,.73,0l26.12-.39a10.29,10.29,0,0,1,2.94.42,64.31,64.31,0,0,1,10.9-.95,45.55,45.55,0,0,1,11.16,1.35,10.73,10.73,0,0,1,1.9-.2l41.4-.62a10.29,10.29,0,0,1,2.94.42,64.31,64.31,0,0,1,10.9-.95,45.36,45.36,0,0,1,11.84,1.53l34.61-.79h.24a10.3,10.3,0,0,1,4.26.91,10.48,10.48,0,0,1,3.29-.68l44.83-1.81h.43a10.06,10.06,0,0,1,6.82,2.61l.13-10.92a8.73,8.73,0,0,1,5.78-7.9l5.71-2.23a84.7,84.7,0,0,1,14.14-4.24,76,76,0,0,1,14.8-1.41A88.88,88.88,0,0,1,649,456.58a77,77,0,0,1,25.3,18h31.89a45.11,45.11,0,0,1,7-.56,40.72,40.72,0,0,1,17.18,3.83q1.57.74,3.09,1.59a54.64,54.64,0,0,1,23.9-5.31,51.21,51.21,0,0,1,8.25.67h25.12l37.07-1h.28a10.32,10.32,0,0,1,4,.8l29.78-.17a10.64,10.64,0,0,1,2-.2h15c.18-8.34,4.1-15.95,11.11-21.47A37.15,37.15,0,0,1,913.26,445c9,0,16.86,2.81,22.88,8.14a27.42,27.42,0,0,1,9.45,21.06v.17l15.82-.23a10.34,10.34,0,0,1,2.94.42,64.22,64.22,0,0,1,10.9-.95c9.7,0,18.24,2.75,25,8l1.2-.74a49.12,49.12,0,0,1,25.78-7.25,74.58,74.58,0,0,1,12.91,1.12h38.32a10.07,10.07,0,0,1,6.8,2.58,8.34,8.34,0,0,1,2.75,6.22l-.86,64.25a54.47,54.47,0,0,1-3.8,17.86c-2.9,7.76-8.22,14.66-15.81,20.53C1059.05,592.68,1048,596,1034.76,596ZM571,493.39l.26,0,0-.9Z" transform="translate(-183.35 -409.67)"/><path d="M1039.36,483.4v0a64,64,0,0,0-12.14-1.15,39,39,0,0,0-20.5,5.8,43.42,43.42,0,0,0-7.39,5.61,25.2,25.2,0,0,0-2.44-2.94h0c-5.35-5.54-12.83-8.47-21.64-8.47a55.51,55.51,0,0,0-13.84,1.81v-1.28l-27.24.41a22,22,0,0,0,1.87-9.05,19.23,19.23,0,0,0-6.55-14.82c-4.2-3.72-9.82-5.68-16.23-5.68a27.23,27.23,0,0,0-17.08,5.68,19.29,19.29,0,0,0-7.81,15.49,18.43,18.43,0,0,0,1.87,8.11H863.88l0,.19-32.72.18-1.86,4.12-1.19-4.92-37.21,1H764.69a39.45,39.45,0,0,0-7.34-.67A44.06,44.06,0,0,0,736.23,488c-1.13.61-2.21,1.27-3.27,2a32.25,32.25,0,0,0-6.92-4.35h0a30.43,30.43,0,0,0-12.86-2.89,34.5,34.5,0,0,0-6.54.63v-.08h-37a66.45,66.45,0,0,0-24.89-18.91h0a78.78,78.78,0,0,0-32.63-7,65.07,65.07,0,0,0-12.75,1.21,74.51,74.51,0,0,0-12.43,3.73l-5.71,2.23L580.76,501l-22.7,2.8,6.65-22.34-44.83,1.81L516.49,495l-4.59-12-36.24.83a34,34,0,0,0-10.45-1.57,55.57,55.57,0,0,0-13.84,1.81v-1.28l-41.24.62v1.47a32.66,32.66,0,0,0-13.22-2.62,55.57,55.57,0,0,0-13.84,1.81v-1.28l-26.85.4v0H313.91l-.1,20.9-1.56-.42.08-20.7H289.28V457.86l-81.2,1.31v101h44.13l-.76-22.78,20.87,2a32,32,0,0,0,5.79,10.48c4.24,5,12.32,11,26.75,11a40.29,40.29,0,0,0,10.84-1.44h26.13V560h41.52l-.05-14.21.26,0L383.49,560h68.16l-.06-17.17h.28L451.79,560H473.4l-4.92,18.4,6.86,3.09a70.57,70.57,0,0,0,12.4,4.18,56.67,56.67,0,0,0,13,1.61,40.23,40.23,0,0,0,27.21-10.16c7.09-6.2,12.46-14.89,16-25.82l2.64-8.86,33.67,2.64-.17,13.64,8.55.89a217.81,217.81,0,0,0,22.62,1.17c20,0,36.34-3.79,48.61-11.26a46,46,0,0,0,4.7-3.26V560h42.11V532.6l11,1a38.1,38.1,0,0,0,3.31,7.28,40,40,0,0,0,34.52,19.6,44.29,44.29,0,0,0,9.2-1V560H842l4.26-11.09L849.84,560H887.5l3.92-13.9.45,13.57h28.3V560h41.52l-.06-15.6.27-.07L961.83,560h28.68a39.1,39.1,0,0,0,3.2,6.53,41.52,41.52,0,0,0,16.93,15.37,53,53,0,0,0,24.12,5.38c11,0,19.89-2.62,26.59-7.8,6.26-4.83,10.62-10.45,13-16.69a46.32,46.32,0,0,0,3.29-15.16l.86-64.25ZM495.83,547.92l-.8-.22c-.54-.15-1-.3-1.39-.44l.08-4ZM383.2,519.74c.05.22.09.47.14.75l-.14,0Zm68.3,0a20.54,20.54,0,0,1,.35,2.57l-.34.07Z" transform="translate(-183.35 -409.67)"/><g id="_1" data-name="1"><path d="M240.27,489l.37,9.8,29.32-.34,2,22.27-30.56.33,1,29.51H217.62V466.84l62.12-1v22.27Z" transform="translate(-183.35 -409.67)"/><path d="M346.68,491v58.9H323.17v-5.46a21,21,0,0,1-7.92,5.07,29.07,29.07,0,0,1-10.39,1.84q-12.75,0-19.18-7.63t-6.19-22.32l.37-30.62h22.89l-.12,29.5c0,3.12.84,5.51,2.54,7.18s4.1,2.51,7.23,2.51a9.67,9.67,0,0,0,8-3.62,14.17,14.17,0,0,0,2.91-9.18v.11l.13-26.28Z" transform="translate(-183.35 -409.67)"/><path d="M411.39,495.62q5.33,5.52,5.07,15.53l-.74,39.31H393.08l.12-26.17q0-8.13-2.41-11.58a8.13,8.13,0,0,0-7.12-3.45,11,11,0,0,0-6.62,2c-1.85,1.33-3,3.6-3.4,6.79l.12,32.4H351.38V491.11l22.15-.33v5.68a48.86,48.86,0,0,1,23.38-6.35Q406.07,490.11,411.39,495.62Z" transform="translate(-183.35 -409.67)"/><path d="M479.69,495.62q5.32,5.52,5.07,15.53L484,550.46H461.38l.12-26.17q0-8.13-2.41-11.58a8.13,8.13,0,0,0-7.12-3.45,11,11,0,0,0-6.62,2c-1.85,1.33-3,3.6-3.4,6.79l.12,32.4H419.68V491.11l22.15-.33v5.68a48.86,48.86,0,0,1,23.38-6.35Q474.38,490.11,479.69,495.62Z" transform="translate(-183.35 -409.67)"/><path d="M552.08,489.78,534.75,548q-4.57,14.25-13.42,22a30.37,30.37,0,0,1-20.6,7.73,45.85,45.85,0,0,1-10.58-1.33,58.69,58.69,0,0,1-10.58-3.56L485.13,552a21.67,21.67,0,0,0,7.06,3.12,29.68,29.68,0,0,0,7.79,1.34,9.79,9.79,0,0,0,8.54-4.23l-27.59-60.68,24.25-.56,12.62,33,9.53-33.18Z" transform="translate(-183.35 -409.67)"/><path d="M640.48,471.29a56.74,56.74,0,0,1,21.84,16.76,37.54,37.54,0,0,1,8.29,23.66q0,19.94-16.08,29.73t-43.31,9.8a207.31,207.31,0,0,1-21.53-1.12l1-80.72a64.51,64.51,0,0,1,10.7-3.23,55.19,55.19,0,0,1,10.71-1A68.21,68.21,0,0,1,640.48,471.29Zm3.28,37a15,15,0,0,0-3.52-9.91,22.91,22.91,0,0,0-9.16-6.51,30.59,30.59,0,0,0-11.57-2.29,25.38,25.38,0,0,0-5.2.45v37.74Q643.76,528.31,643.76,508.26Z" transform="translate(-183.35 -409.67)"/><path d="M721.72,492.5a23,23,0,0,1,7.42,5.52l-8.54,17.25a11.9,11.9,0,0,0-9.77-4.45q-6.69,0-10,4.29t-3.78,14v21.38h-23V491.11h23v5.12a25.87,25.87,0,0,1,7.61-4.17,25.46,25.46,0,0,1,8.48-1.5A20.31,20.31,0,0,1,721.72,492.5Z" transform="translate(-183.35 -409.67)"/><path d="M774.06,550.46l-.13-5.24a26.56,26.56,0,0,1-8.29,4.12,33.54,33.54,0,0,1-10.14,1.56,29.3,29.3,0,0,1-15.1-4.06,30.55,30.55,0,0,1-11-11,29.22,29.22,0,0,1-4.09-15.14,28.76,28.76,0,0,1,4.21-15.25,29.68,29.68,0,0,1,11.57-10.86,33.9,33.9,0,0,1,16.27-3.95,28,28,0,0,1,9.1,1.45,17.71,17.71,0,0,1,6.86,4v-4.78h20.54l2.85,59.12Zm-8.17-19.71a13.23,13.23,0,0,0,4.7-4.73,12.19,12.19,0,0,0,1.73-6.29A10,10,0,0,0,769,512.1a11.58,11.58,0,0,0-8.22-3.06,14.29,14.29,0,0,0-9.53,3.45,10.47,10.47,0,0,0-4.08,8.24,10.35,10.35,0,0,0,1.79,5.68,13.46,13.46,0,0,0,4.7,4.45,11.63,11.63,0,0,0,12.19-.11Z" transform="translate(-183.35 -409.67)"/><path d="M896.92,490.78,880.1,550.46H857l-10-30.62-11.76,30.62H808.33l-13.12-59.24,25.25-.66,6.06,24.94,11-24.39L858,491l9.28,24.83,4.7-25.05Z" transform="translate(-183.35 -409.67)"/><path d="M905.65,485.16a15.17,15.17,0,0,1-5.57-4.74,10.92,10.92,0,0,1,2.35-15.36,16.92,16.92,0,0,1,10.83-3.56,13.92,13.92,0,0,1,9.59,3.23,10.89,10.89,0,0,1,3.65,8.57,13,13,0,0,1-4,9.74,13.65,13.65,0,0,1-9.9,3.84A15.29,15.29,0,0,1,905.65,485.16Zm-6.5,5.95H925v59H901.13Z" transform="translate(-183.35 -409.67)"/><path d="M989.73,495.62q5.31,5.52,5.07,15.53l-.74,39.31H971.41l.13-26.17q0-8.13-2.42-11.58a8.12,8.12,0,0,0-7.11-3.45,11,11,0,0,0-6.62,2c-1.86,1.33-3,3.6-3.4,6.79l.12,32.4h-22.4V491.11l22.15-.33v5.68a46.3,46.3,0,0,1,11-4.57,45.78,45.78,0,0,1,12.38-1.78Q984.4,490.11,989.73,495.62Z" transform="translate(-183.35 -409.67)"/><path d="M1068.79,491.22l-.74,55.45a39.08,39.08,0,0,1-2.78,12.47q-2.67,7.13-10.09,12.86t-20.42,5.73a42.67,42.67,0,0,1-19.48-4.28,32.28,32.28,0,0,1-13.24-12,33.16,33.16,0,0,1-4.77-17.76l22.89,6.8a7.17,7.17,0,0,0,3.78,6.12,16,16,0,0,0,8.47,2.23q8.79,0,12.07-5.18a20.3,20.3,0,0,0,3.15-11.52v-1.56a41,41,0,0,1-10,4.23,39.36,39.36,0,0,1-10.76,1.67,34.83,34.83,0,0,1-15.35-3.4,27.74,27.74,0,0,1-11.13-9.35,23,23,0,0,1-4.09-13.31,27.73,27.73,0,0,1,4.27-14.58A33.46,33.46,0,0,1,1012,494.45a28.94,28.94,0,0,1,15.22-4.34,52.75,52.75,0,0,1,11.69,1.28,35.77,35.77,0,0,1,9.59,3.51l.12-3.68Zm-30.31,35a10.8,10.8,0,0,0,3.59-8,10.06,10.06,0,0,0-3.47-7.8,12.34,12.34,0,0,0-8.54-3.11,11.05,11.05,0,0,0-8.1,3.11,10.78,10.78,0,0,0-3.16,8,10.93,10.93,0,0,0,3.16,8.07,10.61,10.61,0,0,0,7.86,3.18A12,12,0,0,0,1038.48,526.18Z" transform="translate(-183.35 -409.67)"/></g><path class="cls-1" d="M1059.41,583.3a61.27,61.27,0,0,1-30.12-7.44,55.1,55.1,0,0,1-21.61-21.53c-.43-.77-.85-1.57-1.26-2.39H939.36a9.93,9.93,0,0,1-2.75-.38H909.72a10.2,10.2,0,0,1-1.48-.11,10.07,10.07,0,0,1-3.11.49H865.68a10,10,0,0,0-8.26,0H776.5a9.92,9.92,0,0,1-1.55-.12,52.46,52.46,0,0,1-8.11.63,48.46,48.46,0,0,1-26.64-7.85,53,53,0,0,1-14.54-13.87v11.21a10,10,0,0,1-10,10H671.54a10,10,0,0,1-9.78-7.94c-12.81,5.87-28.25,8.84-46.07,8.84a220.21,220.21,0,0,1-24.83-1.41l-9-1a10,10,0,0,1-8.86-10l.07-6.4-17.7-1.52-.63,2.32c-4.18,14.26-10.71,25.73-19.41,34.08-10,9.6-21.92,14.47-35.43,14.47a64.17,64.17,0,0,1-16.13-2.18,78.29,78.29,0,0,1-14.89-5.51l-7.19-3.55a10,10,0,0,1-5.29-11.34l2.14-8.78H333.47a10.09,10.09,0,0,1-3.53-.64H307.5A48.7,48.7,0,0,1,294.74,553c-15,0-27.74-5.88-35.95-16.58a45,45,0,0,1-5.29-8.85l-4.37-.47.45,14.7a10,10,0,0,1-10,10.31H193.35a10,10,0,0,1-10-10V426a10,10,0,0,1,9.82-10l85.25-1.51a10,10,0,0,1,10,10v18.85h14.15a10,10,0,0,1,2.25.26h43.73c.26,0,.51,0,.76,0l27.37-.45a10,10,0,0,1,3.08.48,61.8,61.8,0,0,1,11.42-1.08,43.08,43.08,0,0,1,11.69,1.55,9.34,9.34,0,0,1,2-.24l43.37-.71a10,10,0,0,1,3.08.48,61.89,61.89,0,0,1,11.42-1.08,43.17,43.17,0,0,1,12.4,1.76l36.26-.92h.25a9.89,9.89,0,0,1,4.46,1,10,10,0,0,1,3.45-.78l47-2.09H567a10,10,0,0,1,7.14,3l.14-12.56a10,10,0,0,1,6-9.07l6-2.57a83.09,83.09,0,0,1,14.82-4.87,72.72,72.72,0,0,1,15.5-1.62A86.21,86.21,0,0,1,655.24,423a81.18,81.18,0,0,1,26.49,20.7h33.41a42.66,42.66,0,0,1,7.37-.64,39.41,39.41,0,0,1,18,4.41c1.1.56,2.18,1.17,3.23,1.82a53,53,0,0,1,25-6.1,48.62,48.62,0,0,1,8.64.76h26.31l38.84-1.12h.29a10.08,10.08,0,0,1,4.17.91l31.2-.19a10.19,10.19,0,0,1,2.15-.23h15.66a33.11,33.11,0,0,1,11.64-24.69,36.77,36.77,0,0,1,24.43-9,33.66,33.66,0,0,1,24,9.36,32.88,32.88,0,0,1,9.9,24.21v.2l16.57-.27a9.92,9.92,0,0,1,3.08.48,61.89,61.89,0,0,1,11.42-1.08c10.17,0,19.11,3.15,26.19,9.18l1.25-.86a48.16,48.16,0,0,1,27-8.32,71.38,71.38,0,0,1,13.52,1.28h40.15a10,10,0,0,1,10,10.12l-.9,73.86a67.55,67.55,0,0,1-4,20.53,53.43,53.43,0,0,1-16.56,23.6C1084.86,579.49,1073.31,583.3,1059.41,583.3Zm-485.81-118,.28,0v-1Z" transform="translate(-183.35 -409.67)"/><path d="M1064.23,453.85v0a60.94,60.94,0,0,0-12.72-1.32,38.28,38.28,0,0,0-21.48,6.66,46.23,46.23,0,0,0-7.74,6.46,28.33,28.33,0,0,0-2.55-3.39h0c-5.61-6.37-13.45-9.73-22.68-9.73a53.3,53.3,0,0,0-14.5,2.07v-1.47l-28.53.47a27.54,27.54,0,0,0,2-10.4,23.14,23.14,0,0,0-6.86-17,23.87,23.87,0,0,0-17-6.53,26.93,26.93,0,0,0-17.89,6.53A23.32,23.32,0,0,0,908,453.33H880.39l0,.22-34.28.21-2,4.73-1.25-5.65-39,1.13H776.47a38.25,38.25,0,0,0-7.68-.76,43,43,0,0,0-22.13,5.92c-1.19.71-2.32,1.47-3.43,2.27a33.89,33.89,0,0,0-7.24-5h0a29.62,29.62,0,0,0-13.47-3.32,33.22,33.22,0,0,0-6.85.72v-.08h-38.8A70.58,70.58,0,0,0,650.79,432h0a76.34,76.34,0,0,0-34.19-8.08,62.42,62.42,0,0,0-13.36,1.39,72.57,72.57,0,0,0-13,4.29l-6,2.57-.47,41.91L560,477.26l7-25.68-47,2.09-3.54,13.54-4.82-13.8-38,1a32.66,32.66,0,0,0-10.95-1.8,53.3,53.3,0,0,0-14.5,2.07v-1.47l-43.2.71v1.7a31.45,31.45,0,0,0-13.85-3,53.3,53.3,0,0,0-14.5,2.07v-1.47l-28.13.46v0H304.22l-.1,24-1.64-.48.09-23.8H278.42V424.48L193.35,426V542.07h46.23l-.8-26.18,21.87,2.36a37.85,37.85,0,0,0,6.06,12c4.45,5.78,12.92,12.67,28,12.67a38.55,38.55,0,0,0,11.36-1.66h27.37v.64H377l-.05-16.35h.27l-.07,16.36h71.41l-.07-19.74h.3l-.09,19.75h22.64l-5.16,21.15,7.19,3.55a68.68,68.68,0,0,0,13,4.8,54,54,0,0,0,13.61,1.86,40,40,0,0,0,28.5-11.68c7.43-7.13,13.06-17.12,16.74-29.68l2.76-10.19,35.27,3L583,540.47l9,1a207.2,207.2,0,0,0,23.69,1.35c20.94,0,38.08-4.36,50.93-13a49,49,0,0,0,4.92-3.75v15.8h44.12V510.42l11.56,1.13a44.53,44.53,0,0,0,3.47,8.37,43.74,43.74,0,0,0,14.92,16.27,38.6,38.6,0,0,0,21.23,6.26,42.27,42.27,0,0,0,9.65-1.11v.6h80.92l4.46-12.75,3.8,12.75h39.45l4.11-16,.48,15.6h29.64v.38h43.5L982.79,524l.29-.08-.08,18h30a47.21,47.21,0,0,0,3.35,7.5,45.28,45.28,0,0,0,17.74,17.68,51.49,51.49,0,0,0,25.27,6.18c11.47,0,20.84-3,27.86-9a43.59,43.59,0,0,0,13.56-19.2,57.86,57.86,0,0,0,3.45-17.43l.9-73.86ZM494.81,528c-.27-.07-.55-.16-.84-.25-.56-.17-1-.34-1.45-.5l.08-4.58Zm-118-32.4q.07.39.15.87l-.15,0Zm71.55,0a22.58,22.58,0,0,1,.37,3l-.35.08Z" transform="translate(-183.35 -409.67)"/><g id="_1-2" data-name="1"><path class="cls-2" d="M227.07,460.29l.39,11.26,30.72-.38,2.07,25.6-32,.38,1,33.92H203.35V434.81l65.07-1.15v25.6Z" transform="translate(-183.35 -409.67)"/><path class="cls-2" d="M338.55,462.59V530.3H313.92V524a21.94,21.94,0,0,1-8.29,5.82A28,28,0,0,1,294.74,532q-13.37,0-20.1-8.76t-6.48-25.67l.39-35.2h24l-.13,33.92q0,5.38,2.66,8.26t7.58,2.88a9.8,9.8,0,0,0,8.36-4.16,17.4,17.4,0,0,0,3.05-10.56v.13l.13-30.21Z" transform="translate(-183.35 -409.67)"/><path class="cls-2" d="M406.34,467.9q5.58,6.35,5.32,17.86l-.78,45.18H387.16l.13-30.08q0-9.35-2.53-13.31a8.28,8.28,0,0,0-7.45-4,10.85,10.85,0,0,0-6.94,2.31c-1.94,1.53-3.13,4.14-3.56,7.8l.13,37.25H343.47V462.72l23.21-.39v6.53a46.43,46.43,0,0,1,11.53-5.25,43.85,43.85,0,0,1,13-2Q400.77,461.57,406.34,467.9Z" transform="translate(-183.35 -409.67)"/><path class="cls-2" d="M477.9,467.9q5.57,6.35,5.31,17.86l-.77,45.18H458.71l.13-30.08q0-9.35-2.52-13.31a8.3,8.3,0,0,0-7.46-4,10.81,10.81,0,0,0-6.93,2.31c-1.95,1.53-3.14,4.14-3.57,7.8l.13,37.25H415V462.72l23.2-.39v6.53a46.5,46.5,0,0,1,11.54-5.25,43.84,43.84,0,0,1,13-2Q472.33,461.57,477.9,467.9Z" transform="translate(-183.35 -409.67)"/><path class="cls-2" d="M553.73,461.18l-18.15,66.95q-4.79,16.38-14.06,25.28a30.21,30.21,0,0,1-21.58,8.89,44.26,44.26,0,0,1-11.09-1.53,58,58,0,0,1-11.08-4.1l5.83-23.94a21.88,21.88,0,0,0,7.39,3.59,28.68,28.68,0,0,0,8.17,1.53A10,10,0,0,0,508.1,533l-28.91-69.76,25.41-.64,13.22,37.89,10-38.15Z" transform="translate(-183.35 -409.67)"/><path class="cls-2" d="M646.35,439.93a60.55,60.55,0,0,1,22.88,19.27,45.88,45.88,0,0,1,8.69,27.2q0,22.91-16.86,34.17t-45.37,11.27a198.29,198.29,0,0,1-22.55-1.28l1-92.8a62,62,0,0,1,11.22-3.71,52,52,0,0,1,11.21-1.16A66.16,66.16,0,0,1,646.35,439.93Zm3.44,42.5a18.32,18.32,0,0,0-3.7-11.39,24.12,24.12,0,0,0-9.59-7.49,29.5,29.5,0,0,0-12.12-2.62,24.67,24.67,0,0,0-5.45.51v43.39Q649.79,505.48,649.79,482.43Z" transform="translate(-183.35 -409.67)"/><path class="cls-2" d="M731.45,464.32a24.25,24.25,0,0,1,7.78,6.33l-8.94,19.84A12,12,0,0,0,720,485.37q-7,0-10.43,4.93t-4,16.07v24.57H681.54V462.72h24.12v5.89a26.29,26.29,0,0,1,8-4.8,24.32,24.32,0,0,1,8.88-1.73A19.59,19.59,0,0,1,731.45,464.32Z" transform="translate(-183.35 -409.67)"/><path class="cls-2" d="M786.29,530.94l-.13-6a27.1,27.1,0,0,1-8.69,4.73,32.2,32.2,0,0,1-10.63,1.79A28.6,28.6,0,0,1,751,526.78a33.68,33.68,0,0,1-11.54-12.61,36.1,36.1,0,0,1-4.28-17.4,35.5,35.5,0,0,1,4.41-17.54,32.59,32.59,0,0,1,12.12-12.48,32.94,32.94,0,0,1,17-4.54,27,27,0,0,1,9.52,1.66,18.38,18.38,0,0,1,7.2,4.61V463H807l3,68Zm-8.56-22.65a14.78,14.78,0,0,0,4.93-5.44,15.13,15.13,0,0,0,1.81-7.24,12,12,0,0,0-3.43-8.76,11.54,11.54,0,0,0-8.62-3.52,14.25,14.25,0,0,0-10,4,12.5,12.5,0,0,0-4.27,9.48,12.64,12.64,0,0,0,1.88,6.52,14.73,14.73,0,0,0,4.92,5.12,11.29,11.29,0,0,0,12.77-.12Z" transform="translate(-183.35 -409.67)"/><path class="cls-2" d="M915,462.33l-17.63,68.61H873.14l-10.5-35.2-12.32,35.2H822.19l-13.74-68.09,26.45-.77,6.35,28.67,11.53-28,21.39-.13,9.73,28.54,4.92-28.8Z" transform="translate(-183.35 -409.67)"/><path class="cls-2" d="M924.15,455.87a16.45,16.45,0,0,1-5.84-5.44A13.29,13.29,0,0,1,916,443a13,13,0,0,1,4.74-10.24,16.74,16.74,0,0,1,11.34-4.1,13.84,13.84,0,0,1,10,3.71,13.15,13.15,0,0,1,3.82,9.86,15.71,15.71,0,0,1-4.15,11.2,13.65,13.65,0,0,1-10.37,4.41A14.86,14.86,0,0,1,924.15,455.87Zm-6.81,6.85h27.09v67.84h-25Z" transform="translate(-183.35 -409.67)"/><path class="cls-2" d="M1012.23,467.9q5.57,6.35,5.31,17.86l-.77,45.18H993l.13-30.08q0-9.35-2.52-13.31a8.31,8.31,0,0,0-7.46-4,10.81,10.81,0,0,0-6.93,2.31c-2,1.53-3.14,4.14-3.57,7.8l.13,37.25H949.36V462.72l23.2-.39v6.53a46.34,46.34,0,0,1,11.54-5.25,43.84,43.84,0,0,1,13-2Q1006.66,461.57,1012.23,467.9Z" transform="translate(-183.35 -409.67)"/><path class="cls-2" d="M1095.06,462.85l-.78,63.74a48.72,48.72,0,0,1-2.91,14.34,33.71,33.71,0,0,1-10.57,14.78q-7.77,6.59-21.39,6.59a41.3,41.3,0,0,1-20.41-4.93,35.12,35.12,0,0,1-13.87-13.82,41,41,0,0,1-5-20.42l24,7.81a8.33,8.33,0,0,0,4,7,15.56,15.56,0,0,0,8.88,2.56q9.21,0,12.64-5.95a25.06,25.06,0,0,0,3.3-13.25v-1.79a40.83,40.83,0,0,1-10.5,4.86,37.69,37.69,0,0,1-11.27,1.92,33.94,33.94,0,0,1-16.08-3.9,30,30,0,0,1-11.66-10.75,28.24,28.24,0,0,1-4.28-15.3,34.16,34.16,0,0,1,4.47-16.77,37,37,0,0,1,12-13.05,28.33,28.33,0,0,1,16-5,50.54,50.54,0,0,1,12.25,1.47,35.14,35.14,0,0,1,10,4l.13-4.22ZM1063.3,503a13,13,0,0,0,3.76-9.22,12.08,12.08,0,0,0-3.63-9,12.22,12.22,0,0,0-8.94-3.58,11,11,0,0,0-8.49,3.58,13,13,0,0,0-3.31,9.22,13.27,13.27,0,0,0,3.31,9.28,10.64,10.64,0,0,0,8.23,3.65A12.07,12.07,0,0,0,1063.3,503Z" transform="translate(-183.35 -409.67)"/></g></svg>